<?xml version="1.0" standalone="no"?>
<!DOCTYPE svg PUBLIC "-//W3C//DTD SVG 20010904//EN"
 "http://www.w3.org/TR/2001/REC-SVG-20010904/DTD/svg10.dtd">
<svg version="1.0" xmlns="http://www.w3.org/2000/svg"
 width="384.000000pt" height="384.000000pt" viewBox="0 0 384.000000 384.000000"
 preserveAspectRatio="xMidYMid meet">
<metadata>
Created by potrace 1.14, written by Peter Selinger 2001-2017
</metadata>
<g transform="translate(0.000000,384.000000) scale(0.100000,-0.100000)"
fill="#000000" stroke="none">
<path d="M960 3031 c0 -5 -22 -12 -50 -16 -27 -4 -50 -11 -50 -16 0 -5 -11 -9
-25 -9 -16 0 -25 -6 -25 -15 0 -9 -9 -15 -25 -15 -14 0 -25 -5 -25 -11 0 -7
-11 -22 -25 -35 -14 -13 -25 -29 -25 -36 0 -7 -7 -22 -15 -32 -21 -27 -20
-149 0 -170 8 -8 15 -19 15 -25 0 -6 5 -11 10 -11 6 0 10 -7 10 -15 0 -8 7
-15 15 -15 8 0 15 -5 15 -11 0 -17 27 -39 49 -39 12 0 21 -6 21 -15 0 -9 9
-15 24 -15 13 0 26 -7 30 -15 4 -10 20 -15 51 -15 25 0 45 -4 45 -10 0 -6 27
-10 60 -10 47 0 60 -3 60 -15 0 -11 12 -15 44 -15 30 0 46 -5 50 -15 3 -8 17
-15 31 -15 18 0 25 -5 25 -20 0 -11 4 -20 9 -20 5 0 11 -10 14 -22 6 -22 6
-22 26 -3 33 32 50 45 61 45 5 0 10 5 10 11 0 6 6 17 14 25 8 8 19 14 25 14 6
0 11 7 11 15 0 8 7 15 15 15 14 0 75 53 75 65 0 12 -61 65 -75 65 -8 0 -15 7
-15 15 0 9 -9 15 -25 15 -16 0 -25 6 -25 15 0 11 -11 15 -39 15 -25 0 -41 5
-45 15 -4 11 -21 15 -61 15 -30 0 -55 5 -55 10 0 6 -27 10 -60 10 -47 0 -60 3
-60 15 0 9 -9 15 -21 15 -11 0 -27 6 -35 14 -16 17 -19 56 -4 56 6 0 10 7 10
15 0 12 16 15 85 15 69 0 85 -3 85 -15 0 -8 5 -15 11 -15 17 0 39 -27 39 -49
0 -27 35 -32 177 -28 85 3 115 7 127 20 17 17 21 37 7 37 -5 0 -11 18 -15 40
-3 22 -11 40 -16 40 -6 0 -10 5 -10 10 0 16 -59 70 -75 70 -8 0 -15 7 -15 15
0 9 -9 15 -25 15 -14 0 -25 4 -25 9 0 5 -22 12 -50 16 -27 4 -50 11 -50 16 0
5 -65 9 -145 9 -80 0 -145 -4 -145 -9z"/>
<path d="M1660 2808 c0 -191 3 -202 44 -194 17 4 33 11 34 16 2 6 24 10 49 10
26 0 51 6 59 15 9 8 31 15 50 15 19 0 34 5 34 10 0 6 18 10 39 10 22 0 46 7
55 15 8 8 24 15 36 15 19 0 21 4 15 23 -4 12 -12 48 -17 80 -6 31 -15 57 -19
57 -5 0 -9 12 -9 26 0 50 -14 54 -199 54 l-171 0 0 -152z"/>
<path d="M2263 2945 c-7 -8 -13 -32 -13 -55 0 -22 -4 -40 -10 -40 -5 0 -10
-22 -10 -50 0 -43 3 -50 20 -50 11 0 20 5 20 10 0 6 18 10 39 10 22 0 46 7 55
15 9 9 33 15 60 15 25 0 46 4 46 9 0 5 23 12 50 16 28 4 50 11 50 15 0 5 10
10 23 12 19 3 22 10 25 56 l3 52 -173 0 c-137 -1 -176 -4 -185 -15z"/>
<path d="M2303 2693 c-40 -2 -73 -8 -73 -13 0 -6 -11 -10 -25 -10 -21 0 -26
-6 -31 -40 -4 -22 -11 -43 -15 -46 -5 -3 -9 -16 -9 -30 0 -13 -4 -24 -10 -24
-5 0 -10 17 -10 38 -1 51 -19 72 -64 72 -20 0 -36 -4 -36 -10 0 -5 -18 -13
-40 -16 -22 -4 -40 -10 -40 -15 0 -5 -9 -9 -19 -9 -12 0 -21 -9 -25 -24 -7
-27 1 -56 15 -56 5 0 9 -18 9 -39 0 -22 5 -41 11 -43 6 -2 12 -26 14 -53 1
-27 8 -51 14 -53 6 -2 11 -17 11 -33 0 -16 5 -29 10 -29 6 0 10 -22 10 -50 0
-38 4 -50 15 -50 11 0 15 -11 15 -40 l0 -40 110 0 110 0 0 40 c0 29 4 40 15
40 11 0 15 11 15 40 0 22 5 40 10 40 6 0 10 18 10 40 0 29 4 40 15 40 11 0 15
11 15 40 0 22 5 40 10 40 6 0 10 18 10 40 0 30 4 40 16 40 14 0 16 7 11 40 -4
30 -2 40 9 40 10 0 12 -10 8 -44 -4 -25 -3 -133 1 -240 l7 -196 109 0 109 0 0
304 0 303 -37 7 c-37 6 -139 5 -280 -1z"/>
<path d="M1840 2551 c0 -5 -13 -12 -30 -16 -16 -4 -30 -11 -30 -16 0 -5 -9 -9
-20 -9 -11 0 -23 -7 -26 -15 -4 -8 -15 -15 -26 -15 -44 0 -48 -18 -48 -214 l0
-186 109 0 c90 0 110 3 115 16 3 9 6 117 6 240 l0 224 -25 0 c-14 0 -25 -4
-25 -9z"/>
<path d="M706 2423 c-21 -3 -45 -10 -52 -18 -16 -16 -19 -55 -4 -55 6 0 10
-18 10 -40 0 -22 5 -40 10 -40 6 0 10 -7 10 -15 0 -8 7 -15 15 -15 8 0 15 -5
15 -11 0 -13 55 -69 68 -69 5 0 12 -7 16 -15 3 -9 18 -15 35 -15 16 0 31 -5
33 -12 3 -9 28 -11 83 -9 75 2 105 14 105 40 0 6 11 11 25 11 14 0 25 5 25 11
0 14 25 39 39 39 6 0 11 7 11 15 0 8 9 15 20 15 11 0 20 4 20 9 0 5 -30 11
-67 13 -39 2 -68 9 -71 16 -2 7 -9 12 -16 12 -17 0 -56 34 -56 49 0 6 -4 11
-10 11 -5 0 -10 15 -10 34 0 26 -5 35 -22 40 -24 6 -166 5 -232 -1z"/>
<path d="M1528 2367 c-8 -8 -24 -18 -36 -21 -12 -4 -22 -12 -22 -17 0 -5 -7
-9 -15 -9 -8 0 -15 -4 -15 -9 0 -5 -10 -13 -22 -17 -20 -6 -31 -13 -63 -41 -7
-7 -18 -13 -24 -13 -6 0 -11 -7 -11 -15 0 -8 -5 -15 -11 -15 -6 0 -17 -6 -24
-12 -33 -30 -45 -38 -55 -38 -5 0 -10 -6 -10 -13 0 -7 -11 -21 -25 -31 -14
-10 -25 -23 -25 -27 0 -5 34 -9 75 -9 43 0 75 4 75 10 0 6 18 10 40 10 27 0
43 5 46 15 4 8 15 15 25 15 10 0 19 7 19 15 0 8 8 15 18 15 12 0 26 15 38 38
10 20 22 39 27 40 4 2 7 12 7 23 0 11 7 31 16 44 28 43 5 94 -28 62z"/>
<path d="M2363 1703 c-16 -6 -19 -233 -3 -233 6 0 10 -7 10 -15 0 -8 -6 -15
-14 -15 -8 0 -17 -6 -19 -12 -4 -10 -6 -10 -6 0 -1 8 -18 12 -50 12 -42 0 -49
-3 -55 -22 -8 -30 -8 -72 0 -92 7 -19 90 -23 96 -4 3 7 13 3 28 -12 15 -15 19
-25 12 -28 -8 -2 -12 -39 -12 -119 0 -133 5 -143 74 -143 l46 0 0 345 0 345
-47 -1 c-27 0 -54 -3 -60 -6z"/>
<path d="M3170 1699 c-11 -8 -12 -12 -2 -16 17 -7 16 -101 -2 -119 -9 -9 -35
-14 -69 -14 -81 0 -87 -4 -87 -61 l0 -49 85 0 85 0 0 -79 c0 -54 -4 -81 -12
-84 -25 -10 16 -27 65 -27 l47 0 0 230 0 230 -47 0 c-27 0 -55 -5 -63 -11z"/>
<path d="M2810 1650 c0 -27 -4 -50 -10 -50 -5 0 -10 -18 -10 -40 0 -22 -4 -40
-10 -40 -5 0 -12 -11 -16 -25 -3 -14 -10 -25 -15 -25 -5 0 -9 -5 -9 -11 0 -7
-16 -26 -35 -45 -19 -18 -35 -37 -35 -43 0 -6 -9 -11 -20 -11 -11 0 -29 -9
-40 -20 -24 -24 -27 -60 -5 -60 8 0 15 -5 15 -11 0 -16 26 -39 45 -39 19 0 45
23 45 39 0 6 11 11 25 11 16 0 25 6 25 15 0 8 5 15 11 15 14 0 39 25 39 39 0
6 7 11 15 11 9 0 15 9 15 25 0 33 36 35 46 3 8 -27 41 -58 61 -58 7 0 13 -5
13 -11 0 -17 27 -39 48 -39 11 0 22 -7 26 -15 8 -23 21 -18 60 20 43 42 48 75
11 75 -14 0 -25 4 -25 9 0 5 -10 13 -22 17 -21 6 -98 77 -98 89 0 3 -11 16
-25 29 -18 17 -25 34 -25 60 0 20 5 36 10 36 15 0 12 70 -4 86 -8 8 -34 14
-60 14 l-46 0 0 -50z"/>
<path d="M323 1654 c-13 -3 -23 -9 -23 -14 0 -4 -11 -11 -25 -14 -14 -4 -25
-11 -25 -16 0 -6 -7 -10 -15 -10 -9 0 -15 -9 -15 -24 0 -13 -5 -26 -12 -28
-16 -6 -15 -181 1 -186 6 -2 11 -8 11 -14 0 -13 26 -38 39 -38 6 0 11 -7 11
-15 0 -9 9 -15 25 -15 16 0 25 -6 25 -15 0 -8 9 -15 20 -15 11 0 20 -4 20 -10
0 -5 9 -10 19 -10 11 0 26 -7 35 -15 8 -8 19 -15 25 -15 14 0 51 -37 51 -50 0
-5 5 -10 10 -10 6 0 10 -22 10 -50 0 -27 -4 -50 -10 -50 -5 0 -10 -7 -10 -15
0 -8 -7 -15 -15 -15 -8 0 -15 -4 -15 -10 0 -6 -30 -10 -70 -10 -40 0 -70 4
-70 10 0 6 -11 10 -25 10 -16 0 -25 6 -25 15 0 8 -5 15 -11 15 -14 0 -39 25
-39 39 0 6 -7 11 -15 11 -12 0 -15 -15 -15 -73 0 -77 10 -96 59 -112 12 -3 21
-11 21 -16 0 -14 239 -11 255 4 33 29 45 37 55 37 5 0 10 7 10 15 0 8 5 15 10
15 6 0 10 5 10 11 0 6 7 17 15 25 21 22 21 176 0 198 -8 8 -15 18 -15 21 0 13
-91 95 -106 95 -8 0 -14 5 -14 10 0 6 -11 10 -25 10 -16 0 -25 6 -25 15 0 10
-11 15 -35 15 -24 0 -35 5 -35 15 0 8 -7 15 -15 15 -8 0 -15 7 -15 15 0 8 -4
15 -10 15 -17 0 -12 90 7 108 24 24 144 30 166 8 8 -9 25 -16 36 -16 12 0 21
-6 21 -15 0 -8 7 -15 15 -15 8 0 15 -4 15 -10 0 -5 5 -10 10 -10 6 0 10 28 10
65 0 37 -4 65 -10 65 -5 0 -10 7 -10 15 0 9 -9 15 -24 15 -13 0 -26 5 -28 11
-4 12 -174 22 -215 13z"/>
<path d="M1853 1653 c-8 -3 -13 -24 -13 -54 l0 -49 130 0 130 0 0 -40 c0 -22
-4 -40 -9 -40 -5 0 -11 -10 -15 -23 -3 -12 -14 -32 -26 -44 -11 -12 -20 -25
-20 -28 0 -13 -91 -95 -104 -95 -8 0 -16 -7 -20 -15 -3 -8 -15 -15 -26 -15
-11 0 -20 -4 -20 -10 0 -5 -11 -10 -25 -10 -15 0 -25 -6 -25 -14 0 -8 -6 -17
-12 -20 -10 -5 -10 -7 0 -12 6 -3 12 -10 12 -15 0 -5 9 -18 20 -29 20 -20 80
-28 80 -11 0 5 10 13 22 17 12 3 28 12 35 18 30 27 43 36 48 36 11 0 65 58 65
69 0 6 5 11 11 11 14 0 39 25 39 39 0 6 5 11 10 11 6 0 10 5 10 11 0 6 7 17
15 25 8 9 15 24 15 35 0 10 5 19 10 19 6 0 10 11 10 24 0 13 5 26 11 28 6 2
14 27 17 56 2 29 8 52 13 52 16 0 10 68 -7 74 -19 7 -363 7 -381 -1z"/>
<path d="M640 1601 c0 -60 2 -61 126 -61 l94 0 0 -330 0 -330 60 0 60 0 0 330
0 330 110 0 110 0 0 30 c0 25 4 30 25 30 20 0 25 -5 25 -25 0 -14 5 -25 10
-25 6 0 10 -7 10 -15 0 -8 4 -15 9 -15 5 0 12 -13 16 -30 4 -16 11 -30 16 -30
5 0 9 -9 9 -20 0 -11 5 -20 10 -20 6 0 10 -7 10 -15 0 -9 7 -18 15 -21 8 -4
15 -17 15 -30 0 -13 4 -24 8 -24 5 0 17 -15 27 -34 17 -32 17 -35 2 -51 -9 -9
-17 -23 -17 -31 0 -8 -4 -14 -10 -14 -5 0 -10 -11 -10 -25 0 -16 -6 -25 -15
-25 -8 0 -15 -7 -15 -15 0 -8 -4 -15 -10 -15 -5 0 -10 -11 -10 -25 0 -14 -4
-25 -10 -25 -5 0 -10 -7 -10 -15 0 -8 -7 -15 -15 -15 -9 0 -15 -9 -15 -25 0
-14 -4 -25 -10 -25 -5 0 -10 -7 -10 -15 0 -8 -4 -15 -10 -15 -5 0 -12 -11 -16
-25 -3 -14 -10 -25 -15 -25 -5 0 -9 -7 -9 -15 0 -12 14 -15 69 -15 65 0 69 1
75 25 4 14 11 25 16 25 6 0 10 11 10 25 0 14 5 25 10 25 6 0 10 7 10 15 0 9 7
18 15 21 8 4 15 17 15 30 0 13 4 24 9 24 5 0 12 11 15 25 4 14 11 25 16 25 6
0 10 7 10 15 0 8 5 15 10 15 6 0 10 -7 10 -15 0 -8 4 -15 10 -15 5 0 12 -11
16 -25 3 -14 10 -25 15 -25 5 0 9 -7 9 -15 0 -8 4 -15 9 -15 5 0 12 -11 15
-25 4 -14 11 -25 16 -25 6 0 10 -11 10 -25 0 -14 3 -25 8 -25 4 0 13 -13 20
-30 13 -29 16 -30 78 -30 62 0 64 1 64 25 0 14 -4 25 -10 25 -5 0 -10 7 -10
15 0 8 -7 15 -15 15 -9 0 -15 9 -15 25 0 14 -4 25 -10 25 -5 0 -10 7 -10 15 0
8 -4 15 -9 15 -5 0 -12 11 -15 25 -4 14 -11 25 -16 25 -6 0 -10 7 -10 15 0 8
-4 15 -9 15 -5 0 -12 11 -15 25 -4 14 -11 25 -16 25 -6 0 -10 11 -10 25 0 14
-4 25 -10 25 -5 0 -10 7 -10 15 0 7 -8 19 -17 24 -12 7 -14 13 -7 18 6 5 14
18 18 31 4 12 12 22 17 22 5 0 9 7 9 15 0 8 5 15 10 15 6 0 10 11 10 25 0 16
6 25 15 25 9 0 15 9 15 25 0 14 5 25 10 25 6 0 10 7 10 15 0 9 7 18 15 21 8 4
15 15 15 25 0 10 3 19 8 19 4 0 16 20 27 45 11 25 23 45 28 45 4 0 7 5 7 10 0
6 -30 10 -70 10 -66 0 -70 -1 -76 -25 -3 -14 -10 -25 -15 -25 -5 0 -9 -11 -9
-25 0 -14 -4 -25 -10 -25 -5 0 -10 -7 -10 -15 0 -8 -4 -15 -10 -15 -5 0 -12
-11 -16 -25 -3 -14 -10 -25 -14 -25 -4 0 -11 -12 -14 -26 -6 -24 -28 -54 -39
-54 -3 0 -8 11 -11 25 -4 14 -11 25 -16 25 -6 0 -10 7 -10 15 0 8 -4 15 -10
15 -5 0 -10 11 -10 25 0 14 -4 25 -10 25 -5 0 -12 11 -16 25 -3 14 -10 25 -15
25 -5 0 -9 7 -9 15 0 8 -4 15 -9 15 -5 0 -12 11 -15 25 l-6 25 -350 0 -350 0
0 -49z"/>
<path d="M2740 1174 c0 -73 3 -74 208 -74 130 0 181 3 184 12 3 8 12 4 26 -10
12 -12 22 -24 22 -27 0 -3 -92 -5 -204 -5 -112 0 -211 -3 -220 -6 -13 -5 -16
-27 -16 -135 l0 -129 280 0 280 0 0 55 0 55 -220 0 -220 0 0 25 0 25 210 0
210 0 0 118 c0 66 -5 124 -11 132 -8 11 -12 12 -16 3 -6 -15 -73 -18 -73 -3 0
6 -80 10 -220 10 l-220 0 0 -46z"/>
<path d="M1930 961 c0 -71 3 -136 6 -145 5 -14 39 -16 280 -16 l274 0 6 24 c3
13 4 37 2 52 l-3 29 -203 3 c-159 2 -207 6 -218 16 -10 10 -14 39 -14 90 l0
76 -65 0 -65 0 0 -129z"/>
</g>
</svg>
